<mxfile host="app.diagrams.net" modified="2023-10-11T01:44:19.934Z" agent="Mozilla/5.0 (Macintosh; Intel Mac OS X 10_15_7) AppleWebKit/605.1.15 (KHTML, like Gecko) Version/17.0 Safari/605.1.15" version="22.0.4" etag="gcuRUwS-7ndoVv6KMUCG" type="github">
  <diagram name="PÃ¡gina-1" id="Fo088PdOUojlw_hWXOyv">
    <mxGraphModel>
      <root>
        <mxCell id="0" />
        <mxCell id="1" parent="0" />
      </root>
    </mxGraphModel>
  </diagram>
</mxfile>
